<svg xmlns="http://www.w3.org/2000/svg" viewBox="0 0 256 256" role="img" aria-labelledby="title desc">
  <title id="title">Shemo Studio SS monogram</title>
  <desc id="desc">Two separated S letterforms inside a cinematic frame.</desc>
  <rect width="256" height="256" rx="30" fill="#0E0F12"/>
  <rect x="36" y="36" width="184" height="184" rx="20" fill="#1C1E22" stroke="#33363C" stroke-width="4"/>
  <path d="M104 62 C78 50, 58 61, 56 84 C54 112, 102 104, 103 131 C104 161, 59 151, 56 183 C54 207, 84 217, 110 199" fill="none" stroke="#F5F2EC" stroke-width="16" stroke-linecap="round" stroke-linejoin="round"/>
  <path d="M172 62 C146 50, 126 61, 124 84 C122 112, 170 104, 171 131 C172 161, 127 151, 124 183 C122 207, 152 217, 178 199" fill="none" stroke="#F5F2EC" stroke-width="16" stroke-linecap="round" stroke-linejoin="round"/>
  <path d="M57 39 H199 M57 217 H199" fill="none" stroke="#FF5A2C" stroke-width="6" stroke-linecap="round"/>
</svg>
