<svg xmlns="http://www.w3.org/2000/svg" viewBox="0 0 256 256" role="img" aria-labelledby="title desc">
  <title id="title">Shemo Studio SS monogram</title>
  <desc id="desc">Two hand-drawn S letterforms crossing a cinematic frame.</desc>
  <rect width="256" height="256" rx="28" fill="#0E0F12"/>
  <path d="M54 66 C78 42, 130 42, 144 68 C160 98, 120 108, 91 118 C58 130, 48 160, 79 181 C105 198, 146 191, 164 165" fill="none" stroke="#F5F2EC" stroke-width="13" stroke-linecap="round"/>
  <path d="M191 70 C169 50, 122 49, 109 73 C94 101, 132 112, 163 123 C197 135, 207 164, 176 184 C151 200, 111 194, 92 171" fill="none" stroke="#F5F2EC" stroke-width="8" stroke-linecap="round" opacity=".72"/>
  <path d="M48 52 L208 52 M48 204 L208 204" fill="none" stroke="#FF5A2C" stroke-width="6" stroke-linecap="round"/>
  <path d="M61 40 L44 57 M213 199 L195 216" fill="none" stroke="#A7A39B" stroke-width="4" stroke-linecap="round"/>
</svg>
