<svg xmlns="http://www.w3.org/2000/svg" viewBox="0 0 760 180" role="img" aria-labelledby="title desc">
  <title id="title">Shemo Studio wordmark</title>
  <desc id="desc">A cinematic Shemo Studio wordmark with a separated SS monogram.</desc>
  <style>
    @import url("https://fonts.googleapis.com/css2?family=Fraunces:opsz,wght@9..144,700..900&amp;family=Inter:wght@400;600&amp;display=swap");
  </style>
  <rect width="760" height="180" fill="#0E0F12"/>
  <g transform="translate(36 24)">
    <rect x="0" y="0" width="132" height="132" rx="18" fill="#1C1E22" stroke="#33363C" stroke-width="2"/>
    <path d="M50 30 C37 24, 26 30, 26 43 C25 58, 50 55, 51 69 C52 86, 27 80, 26 99 C25 113, 41 121, 55 111" fill="none" stroke="#F5F2EC" stroke-width="8" stroke-linecap="round" stroke-linejoin="round"/>
    <path d="M92 30 C79 24, 68 30, 68 43 C67 58, 92 55, 93 69 C94 86, 69 80, 68 99 C67 113, 83 121, 97 111" fill="none" stroke="#F5F2EC" stroke-width="8" stroke-linecap="round" stroke-linejoin="round"/>
    <path d="M24 22 H108 M24 112 H108" fill="none" stroke="#FF5A2C" stroke-width="3.5" stroke-linecap="round"/>
  </g>
  <text x="204" y="88" fill="#F5F2EC" font-family="Fraunces, Georgia, serif" font-size="56" font-weight="850">Shemo Studio</text>
  <text x="207" y="125" fill="#A7A39B" font-family="Inter, 'Segoe UI', Arial, sans-serif" font-size="21">From Sketch to Screen</text>
  <path d="M205 144 C307 132, 417 153, 527 140 C594 132, 649 134, 705 145" fill="none" stroke="#F5F2EC" stroke-width="2.5" stroke-linecap="round" opacity=".55"/>
</svg>
